# xmcd
#
# Track frame offsets:
#	150
#	13221
#	29017
#	41102
#	57128
#	74506
#	90943
#	101871
#	117370
#	137937
#	158140
#	173887
#	191018
#	209066
#	223112
#	238387
#	252880
#	269067
#	279489
#	290364
#	303975
#
# Disc length: 4223 seconds
#
# Revision: 0
# Processed by: cddbd v1.4PL0 Copyright (c) Steve Scherf et al.
# Submitted via: audiograbber 1.80
#
DISCID=53107d15
DTITLE=Waldemar Matuska - Nebeskej kovboj
DYEAR=1900
DGENRE=
TTITLE0=Nebeskej kovboj
TTITLE1=Arie mesice
TTITLE2=Bud porad se mnou
TTITLE3=Pisnicka pro Zuzanu
TTITLE4=Jo, tresne zraly
TTITLE5=Divoky kone
TTITLE6=Tereza
TTITLE7=Mrholi
TTITLE8=Ach, ta laska nebeska
TTITLE9=Slany dest
TTITLE10=Mam maly stan
TTITLE11=Tam za vodou v rakosi
TTITLE12=Ruze z Texasu
TTITLE13=Pada hvezda
TTITLE14=Rudy pav
TTITLE15=Couva mesic
TTITLE16=Co z toho mam
TTITLE17=Bile banjo
TTITLE18=Tam, kde konci modrinovej les
TTITLE19=V udoli skrehotavych vran
TTITLE20=Supi
EXTD=
EXTT0=
EXTT1=
EXTT2=
EXTT3=
EXTT4=
EXTT5=
EXTT6=
EXTT7=
EXTT8=
EXTT9=
EXTT10=
EXTT11=
EXTT12=
EXTT13=
EXTT14=
EXTT15=
EXTT16=
EXTT17=
EXTT18=
EXTT19=
EXTT20=
PLAYORDER=
